<svg xmlns="http://www.w3.org/2000/svg" width="20" height="20" viewBox="0 0 20 20" fill="none">
    <path d="M11.4417 2.925L12.9084 5.85833C13.1084 6.26666 13.6417 6.65833 14.0917 6.73333L16.75 7.175C18.45 7.45833 18.85 8.69166 17.625 9.90833L15.5584 11.975C15.2084 12.325 15.0167 13 15.125 13.4833L15.7167 16.0417C16.1834 18.0667 15.1084 18.85 13.3167 17.7917L10.825 16.3167C10.375 16.05 9.63338 16.05 9.17505 16.3167L6.68338 17.7917C4.90005 18.85 3.81671 18.0583 4.28338 16.0417L4.87505 13.4833C4.98338 13 4.79171 12.325 4.44171 11.975L2.37505 9.90833C1.15838 8.69166 1.55005 7.45833 3.25005 7.175L5.90838 6.73333C6.35005 6.65833 6.88338 6.26666 7.08338 5.85833L8.55005 2.925C9.35005 1.33333 10.65 1.33333 11.4417 2.925Z" fill="#FB6231" stroke="#151515" stroke-linecap="round" stroke-linejoin="round"/>
</svg>